<svg id="visual" viewBox="0 0 1920 1080" width="1920" height="1080" xmlns="http://www.w3.org/2000/svg" xmlns:xlink="http://www.w3.org/1999/xlink" version="1.1"><rect x="0" y="0" width="1920" height="1080" fill="#dce0e8"></rect><g transform="translate(984.3742639855493 781.3962880070516)"><path d="M200.8 -319.6C349.9 -261.7 622.2 -389.1 755.5 -366.7C888.7 -344.3 882.9 -172.2 850.8 -18.5C818.8 135.2 760.6 270.3 655 340.6C549.4 410.9 396.4 416.3 279.4 350.1C162.3 283.8 81.2 145.9 40.6 75.6C0 5.3 0 2.7 -137.3 80.6C-274.5 158.5 -549.1 317 -712.7 317C-876.4 317 -929.2 158.5 -917.1 7C-904.9 -144.5 -827.9 -289 -754.2 -444.9C-680.6 -600.8 -610.3 -768 -485.1 -839.8C-360 -911.5 -180 -887.8 -77.1 -754.3C25.8 -620.7 51.7 -377.5 200.8 -319.6" fill="#ccd0da"></path></g></svg>