<svg id="visual" viewBox="0 0 1920 1080" width="1920" height="1080" xmlns="http://www.w3.org/2000/svg" xmlns:xlink="http://www.w3.org/1999/xlink" version="1.1"><rect x="0" y="0" width="1920" height="1080" fill="#dce0e8"></rect><g transform="translate(1080.384722121975 345.2463160936393)"><path d="M21.7 -34.3C34.2 -30.5 54.3 -36.7 70 -32.7C85.7 -28.7 96.8 -14.3 100.6 2.2C104.3 18.7 100.7 37.3 90 50C79.3 62.7 61.7 69.5 45.5 172.6C29.3 275.8 14.7 475.4 5.3 466.2C-4 456.9 -8 238.9 -58.4 155.4C-108.7 72 -205.5 123.3 -267 119.8C-328.5 116.3 -354.7 58.2 -337.7 9.8C-320.7 -38.5 -260.4 -77 -196.9 -77C-133.4 -77 -66.7 -38.5 -33.3 -30.3C0 -22 0 -44 2.3 -48C4.7 -52.1 9.3 -38.2 21.7 -34.3" fill="#df8e1d"></path></g></svg>