<svg id="visual" viewBox="0 0 1920 1080" width="1920" height="1080" xmlns="http://www.w3.org/2000/svg" xmlns:xlink="http://www.w3.org/1999/xlink" version="1.1"><rect x="0" y="0" width="1920" height="1080" fill="#dce0e8"></rect><g transform="translate(968.4185571126517 589.0251458965499)"><path d="M454.6 -843.5C561.8 -725.4 602.6 -548.5 639.1 -398.1C675.6 -247.7 707.8 -123.8 608.2 -57.5C508.6 8.8 277.3 17.7 164.8 36.4C52.3 55.2 58.6 83.9 51 246.6C43.3 409.4 21.7 706.2 -63.5 816.2C-148.7 926.2 -297.3 849.3 -446.7 768.4C-596.1 687.5 -746.2 602.5 -671.9 473.7C-597.6 345 -298.8 172.5 -287.7 6.4C-276.6 -159.7 -553.1 -319.3 -576.3 -359.5C-599.4 -399.6 -369.2 -320.2 -230.9 -420.3C-92.7 -520.5 -46.3 -800.3 63.7 -910.5C173.7 -1020.8 347.3 -961.6 454.6 -843.5" fill="#fe640b"></path></g></svg>