<svg id="visual" viewBox="0 0 1920 1080" width="1920" height="1080" xmlns="http://www.w3.org/2000/svg" xmlns:xlink="http://www.w3.org/1999/xlink" version="1.1"><rect x="0" y="0" width="1920" height="1080" fill="#dce0e8"></rect><g transform="translate(1064.8893205693819 521.0927613608892)"><path d="M180 -376.3C221 -288.1 233.5 -215 240.9 -154.9C248.3 -94.7 250.7 -47.3 269.6 10.9C288.6 69.2 324 138.3 322.7 209.2C321.4 280.1 283.5 352.6 223.6 430.6C163.7 508.5 81.8 591.7 -12.3 613.1C-106.5 634.5 -213 593.9 -258.8 507.8C-304.5 421.8 -289.5 290.1 -334.6 197.9C-379.7 105.7 -484.8 52.8 -519.2 -19.8C-553.5 -92.5 -517.1 -185 -460.4 -257.2C-403.8 -329.3 -326.9 -381.2 -246.8 -446.8C-166.7 -512.3 -83.3 -591.7 -6.9 -579.7C69.5 -567.7 139 -464.4 180 -376.3" fill="#df8e1d"></path></g></svg>