<svg id="visual" viewBox="0 0 1920 1080" width="1920" height="1080" xmlns="http://www.w3.org/2000/svg" xmlns:xlink="http://www.w3.org/1999/xlink" version="1.1"><rect x="0" y="0" width="1920" height="1080" fill="#dce0e8"></rect><g transform="translate(960 540)"><path d="M322.4 -558.5C419.9 -502.2 502.2 -419.9 558.5 -322.4C614.7 -225 644.9 -112.5 644.9 0C644.9 112.5 614.7 225 558.5 322.4C502.2 419.9 419.9 502.2 322.4 558.5C225 614.7 112.5 644.9 0 644.9C-112.5 644.9 -225 614.7 -322.4 558.5C-419.9 502.2 -502.2 419.9 -558.5 322.4C-614.7 225 -644.9 112.5 -644.9 0C-644.9 -112.5 -614.7 -225 -558.5 -322.4C-502.2 -419.9 -419.9 -502.2 -322.4 -558.5C-225 -614.7 -112.5 -644.9 0 -644.9C112.5 -644.9 225 -614.7 322.4 -558.5" fill="#fe640b"></path></g></svg>