<svg id="visual" viewBox="0 0 1920 1080" width="1920" height="1080" xmlns="http://www.w3.org/2000/svg" xmlns:xlink="http://www.w3.org/1999/xlink" version="1.1"><rect x="0" y="0" width="1920" height="1080" fill="#dce0e8"></rect><g transform="translate(857.6927832187548 767.7985283842943)"><path d="M563.2 -933.6C759.3 -862.2 968.1 -770.8 876.4 -611.9C784.6 -453 392.3 -226.5 410.5 10.5C428.7 247.5 857.4 495 906 579.1C954.5 663.3 623 584.1 408.7 491.3C194.3 398.6 97.2 292.3 37.8 226.9C-21.7 161.5 -43.3 137.1 -108.4 143.6C-173.5 150.2 -282.1 187.9 -373.1 169.1C-464.1 150.3 -537.5 75.2 -598.9 -35.4C-660.2 -146 -709.4 -292 -706 -462.5C-702.6 -632.9 -646.5 -827.9 -520.1 -939.5C-393.7 -1051.2 -196.8 -1079.6 -6.7 -1068C183.5 -1056.5 367 -1005 563.2 -933.6" fill="#ccd0da"></path></g></svg>